<?xml version="1.0" encoding="iso-8859-1"?>
<!-- Generator: Adobe Illustrator 19.0.0, SVG Export Plug-In . SVG Version: 6.00 Build 0)  -->
<svg version="1.1" id="Layer_1" xmlns="http://www.w3.org/2000/svg" xmlns:xlink="http://www.w3.org/1999/xlink" x="0px" y="0px"
	 viewBox="0 0 473.931 473.931" style="enable-background:new 0 0 473.931 473.931;" xml:space="preserve">
<circle style="fill:#EDC92C;" cx="236.966" cy="236.966" r="236.966"/>
<circle style="fill:#49A0AE;" cx="111.583" cy="346.637" r="23.465"/>
<circle style="fill:#3F9099;" cx="111.583" cy="346.637" r="13.904"/>
<circle style="fill:#49A0AE;" cx="358.386" cy="346.637" r="23.465"/>
<circle style="fill:#3F9099;" cx="358.386" cy="346.637" r="13.904"/>
<g>
	<path style="fill:#5E9598;" d="M117.667,345.787c0,3.36-2.724,6.084-6.084,6.084l0,0c-3.356,0-6.08-2.724-6.08-6.084V235.42
		c0-3.36,2.724-6.08,6.08-6.08l0,0c3.36,0,6.084,2.72,6.084,6.08V345.787z"/>
	<path style="fill:#5E9598;" d="M364.477,345.787c0,3.36-2.728,6.084-6.088,6.084l0,0c-3.356,0-6.08-2.724-6.08-6.084V235.42
		c0-3.36,2.724-6.08,6.08-6.08l0,0c3.356,0,6.088,2.72,6.088,6.08V345.787z"/>
</g>
<path style="fill:#B0DFE0;" d="M384.589,228.277c6.17,0,11.169,4.999,11.169,11.173v23.749c0,6.163-4.999,11.169-11.169,11.169
	H84.515c-6.17,0-11.169-5.006-11.169-11.169V239.45c0-6.174,4.999-11.173,11.169-11.173H384.589z"/>
<path style="fill:#35878C;" d="M96.638,231.338c0,1.721-1.396,3.121-3.121,3.121l0,0c-1.721,0-3.117-1.399-3.117-3.121v-43.651
	c0-1.725,1.396-3.121,3.117-3.121l0,0c1.725,0,3.121,1.396,3.121,3.121V231.338z"/>
<path style="fill:#B0DFE0;" d="M86.438,182.879c-4.838-3.832-5.65-10.855-1.815-15.693l0,0c3.828-4.831,10.859-5.646,15.693-1.807
	l75.995,60.257c4.831,3.835,5.643,10.862,1.807,15.693l0,0c-3.832,4.838-10.859,5.646-15.693,1.811L86.438,182.879z"/>
<path style="fill:#5E9598;" d="M204.525,145.438c-0.962,0-1.736-0.775-1.736-1.732V64.837c0-0.969,0.775-1.744,1.736-1.744
	c0.962,0,1.74,0.775,1.74,1.744v78.869C206.265,144.664,205.486,145.438,204.525,145.438z"/>
<path style="fill:#4F7678;" d="M220.195,168.372h-31.337c-0.692,0-1.355-0.273-1.841-0.763c-1.583-1.583-2.455-3.686-2.455-5.931
	c0-2.241,0.872-4.348,2.455-5.931l11.581-11.577c1.587-1.583,3.689-2.458,5.931-2.458c2.241,0,4.348,0.876,5.931,2.458
	l11.584,11.577c1.583,1.583,2.455,3.689,2.455,5.931c0,2.245-0.872,4.348-2.455,5.931
	C221.55,168.099,220.887,168.372,220.195,168.372z M190.138,163.159h28.782c0.236-0.453,0.367-0.958,0.367-1.482
	c0-0.849-0.333-1.643-0.932-2.245l-11.584-11.577c-1.197-1.201-3.289-1.201-4.486,0l-11.581,11.577
	c-0.599,0.599-0.932,1.396-0.932,2.245C189.771,162.202,189.898,162.707,190.138,163.159z"/>
<path style="fill:#74A0A3;" d="M391.553,213.415h-6.174v23.85c0,2.926-2.376,5.298-5.302,5.298c-2.926,0-5.302-2.372-5.302-5.298
	v-23.85h-14.342v23.85c0,2.926-2.376,5.298-5.302,5.298s-5.302-2.372-5.302-5.298v-23.85h-16.834v23.85
	c0,2.926-2.376,5.298-5.302,5.298c-2.926,0-5.302-2.372-5.302-5.298v-23.85h-14.342v23.85c0,2.926-2.376,5.298-5.302,5.298
	s-5.302-2.372-5.302-5.298v-23.85h-17.455v23.85c0,2.926-2.376,5.298-5.302,5.298c-2.926,0-5.302-2.372-5.302-5.298v-23.85h-14.346
	v23.85c0,2.926-2.376,5.298-5.302,5.298c-2.926,0-5.302-2.372-5.302-5.298v-23.85H227.6v23.85c0,2.926-2.376,5.298-5.302,5.298
	c-2.926,0-5.302-2.372-5.302-5.298v-23.85h-14.342v23.85c0,2.926-2.376,5.298-5.302,5.298c-2.926,0-5.302-2.372-5.302-5.298v-23.85
	h-16.834v23.85c0,2.926-2.376,5.298-5.302,5.298c-2.926,0-5.302-2.372-5.302-5.298v-23.85h-14.342v23.85
	c0,2.926-2.376,5.298-5.302,5.298c-2.926,0-5.302-2.372-5.302-5.298v-23.85h-16.834v23.85c0,2.926-2.376,5.298-5.302,5.298
	s-5.302-2.372-5.302-5.298v-23.85H97.884v23.85c0,2.926-2.376,5.298-5.302,5.298s-5.302-2.372-5.302-5.298v-23.85h-9.732
	c-6.458,0-11.689,5.227-11.689,11.689v45.062c0,6.451,5.231,11.686,11.689,11.686h314.001c6.458,0,11.689-5.235,11.689-11.686
	v-45.062C403.242,218.642,398.007,213.415,391.553,213.415z"/>
<path style="fill:#3F9099;" d="M403.93,217c0,1.934-1.325,3.506-2.963,3.506H68.265c-1.639,0-2.967-1.572-2.967-3.506l0,0
	c0-1.942,1.325-3.51,2.967-3.51h332.699C402.602,213.49,403.93,215.058,403.93,217L403.93,217z"/>
<g>
</g>
<g>
</g>
<g>
</g>
<g>
</g>
<g>
</g>
<g>
</g>
<g>
</g>
<g>
</g>
<g>
</g>
<g>
</g>
<g>
</g>
<g>
</g>
<g>
</g>
<g>
</g>
<g>
</g>
</svg>
